TITLE ""
FILE "1Q_j_2101-2113.mp3" MP3
  TRACK 01 AUDIO
    TITLE "1Q_j_2101-2113_01"
    INDEX 01 00:00:00
  TRACK 02 AUDIO
    TITLE "1Q_j_2101-2113_02"
    INDEX 01 00:01:33
  TRACK 03 AUDIO
    TITLE "1Q_j_2101-2113_03"
    INDEX 01 00:02:01
  TRACK 04 AUDIO
    TITLE "1Q_j_2101-2113_04"
    INDEX 01 00:03:65
  TRACK 05 AUDIO
    TITLE "1Q_j_2101-2113_05"
    INDEX 01 00:04:37
  TRACK 06 AUDIO
    TITLE "1Q_j_2101-2113_06"
    INDEX 01 00:05:70
  TRACK 07 AUDIO
    TITLE "1Q_j_2101-2113_07"
    INDEX 01 00:06:03
  TRACK 08 AUDIO
    TITLE "1Q_j_2101-2113_08"
    INDEX 01 00:07:73
  TRACK 09 AUDIO
    TITLE "1Q_j_2101-2113_09"
    INDEX 01 00:08:06
  TRACK 10 AUDIO
    TITLE "1Q_j_2101-2113_10"
    INDEX 01 00:13:50
  TRACK 11 AUDIO
    TITLE "1Q_j_2101-2113_11"
    INDEX 01 00:14:28
  TRACK 12 AUDIO
    TITLE "1Q_j_2101-2113_12"
    INDEX 01 00:15:27
  TRACK 13 AUDIO
    TITLE "1Q_j_2101-2113_13"
    INDEX 01 00:15:49
  TRACK 14 AUDIO
    TITLE "1Q_j_2101-2113_14"
    INDEX 01 00:20:11
  TRACK 15 AUDIO
    TITLE "1Q_j_2101-2113_15"
    INDEX 01 00:20:19
  TRACK 16 AUDIO
    TITLE "1Q_j_2101-2113_16"
    INDEX 01 00:24:11
  TRACK 17 AUDIO
    TITLE "1Q_j_2101-2113_17"
    INDEX 01 00:24:68
  TRACK 18 AUDIO
    TITLE "1Q_j_2101-2113_18"
    INDEX 01 00:26:23
  TRACK 19 AUDIO
    TITLE "1Q_j_2101-2113_19"
    INDEX 01 00:26:31
  TRACK 20 AUDIO
    TITLE "1Q_j_2101-2113_20"
    INDEX 01 00:29:10
  TRACK 21 AUDIO
    TITLE "1Q_j_2101-2113_21"
    INDEX 01 00:29:18
  TRACK 22 AUDIO
    TITLE "1Q_j_2101-2113_22"
    INDEX 01 00:35:03
  TRACK 23 AUDIO
    TITLE "1Q_j_2101-2113_23"
    INDEX 01 00:35:48
  TRACK 24 AUDIO
    TITLE "1Q_j_2101-2113_24"
    INDEX 01 00:37:04
  TRACK 25 AUDIO
    TITLE "1Q_j_2101-2113_25"
    INDEX 01 00:37:11
  TRACK 26 AUDIO
    TITLE "1Q_j_2101-2113_26"
    INDEX 01 00:41:03
  TRACK 27 AUDIO
    TITLE "1Q_j_2101-2113_27"
    INDEX 01 00:41:13
  TRACK 28 AUDIO
    TITLE "1Q_j_2101-2113_28"
    INDEX 01 00:47:71
  TRACK 29 AUDIO
    TITLE "1Q_j_2101-2113_29"
    INDEX 01 00:48:43
  TRACK 30 AUDIO
    TITLE "1Q_j_2101-2113_30"
    INDEX 01 00:50:63
  TRACK 31 AUDIO
    TITLE "1Q_j_2101-2113_31"
    INDEX 01 00:50:73
  TRACK 32 AUDIO
    TITLE "1Q_j_2101-2113_32"
    INDEX 01 00:53:61
  TRACK 33 AUDIO
    TITLE "1Q_j_2101-2113_33"
    INDEX 01 00:53:67
  TRACK 34 AUDIO
    TITLE "1Q_j_2101-2113_34"
    INDEX 01 00:58:21
  TRACK 35 AUDIO
    TITLE "1Q_j_2101-2113_35"
    INDEX 01 00:58:67
  TRACK 36 AUDIO
    TITLE "1Q_j_2101-2113_36"
    INDEX 01 01:00:05
  TRACK 37 AUDIO
    TITLE "1Q_j_2101-2113_37"
    INDEX 01 01:00:14
  TRACK 38 AUDIO
    TITLE "1Q_j_2101-2113_38"
    INDEX 01 01:03:13
  TRACK 39 AUDIO
    TITLE "1Q_j_2101-2113_39"
    INDEX 01 01:03:19
  TRACK 40 AUDIO
    TITLE "1Q_j_2101-2113_40"
    INDEX 01 01:08:53
  TRACK 41 AUDIO
    TITLE "1Q_j_2101-2113_41"
    INDEX 01 01:09:23
  TRACK 42 AUDIO
    TITLE "1Q_j_2101-2113_42"
    INDEX 01 01:10:36
  TRACK 43 AUDIO
    TITLE "1Q_j_2101-2113_43"
    INDEX 01 01:10:46
  TRACK 44 AUDIO
    TITLE "1Q_j_2101-2113_44"
    INDEX 01 01:14:46
  TRACK 45 AUDIO
    TITLE "1Q_j_2101-2113_45"
    INDEX 01 01:14:54
  TRACK 46 AUDIO
    TITLE "1Q_j_2101-2113_46"
    INDEX 01 01:20:21
  TRACK 47 AUDIO
    TITLE "1Q_j_2101-2113_47"
    INDEX 01 01:20:66
  TRACK 48 AUDIO
    TITLE "1Q_j_2101-2113_48"
    INDEX 01 01:22:08
  TRACK 49 AUDIO
    TITLE "1Q_j_2101-2113_49"
    INDEX 01 01:22:16
  TRACK 50 AUDIO
    TITLE "1Q_j_2101-2113_50"
    INDEX 01 01:24:13
  TRACK 51 AUDIO
    TITLE "1Q_j_2101-2113_51"
    INDEX 01 01:24:21
  TRACK 52 AUDIO
    TITLE "1Q_j_2101-2113_52"
    INDEX 01 01:28:64
  TRACK 53 AUDIO
    TITLE "1Q_j_2101-2113_53"
    INDEX 01 01:29:34
  TRACK 54 AUDIO
    TITLE "1Q_j_2101-2113_54"
    INDEX 01 01:30:55
  TRACK 55 AUDIO
    TITLE "1Q_j_2101-2113_55"
    INDEX 01 01:30:66
  TRACK 56 AUDIO
    TITLE "1Q_j_2101-2113_56"
    INDEX 01 01:33:22
  TRACK 57 AUDIO
    TITLE "1Q_j_2101-2113_57"
    INDEX 01 01:33:28
  TRACK 58 AUDIO
    TITLE "1Q_j_2101-2113_58"
    INDEX 01 01:39:46
  TRACK 59 AUDIO
    TITLE "1Q_j_2101-2113_59"
    INDEX 01 01:40:16
  TRACK 60 AUDIO
    TITLE "1Q_j_2101-2113_60"
    INDEX 01 01:41:53
  TRACK 61 AUDIO
    TITLE "1Q_j_2101-2113_61"
    INDEX 01 01:41:60
  TRACK 62 AUDIO
    TITLE "1Q_j_2101-2113_62"
    INDEX 01 01:44:18
  TRACK 63 AUDIO
    TITLE "1Q_j_2101-2113_63"
    INDEX 01 01:44:24
  TRACK 64 AUDIO
    TITLE "1Q_j_2101-2113_64"
    INDEX 01 01:51:02
  TRACK 65 AUDIO
    TITLE "1Q_j_2101-2113_65"
    INDEX 01 01:51:49
  TRACK 66 AUDIO
    TITLE "1Q_j_2101-2113_66"
    INDEX 01 01:52:66
  TRACK 67 AUDIO
    TITLE "1Q_j_2101-2113_67"
    INDEX 01 01:53:01
  TRACK 68 AUDIO
    TITLE "1Q_j_2101-2113_68"
    INDEX 01 01:55:51
  TRACK 69 AUDIO
    TITLE "1Q_j_2101-2113_69"
    INDEX 01 01:55:63
  TRACK 70 AUDIO
    TITLE "1Q_j_2101-2113_70"
    INDEX 01 01:59:15
  TRACK 71 AUDIO
    TITLE "1Q_j_2101-2113_71"
    INDEX 01 01:59:64
  TRACK 72 AUDIO
    TITLE "1Q_j_2101-2113_72"
    INDEX 01 02:00:60
  TRACK 73 AUDIO
    TITLE "1Q_j_2101-2113_73"
    INDEX 01 02:01:04
  TRACK 74 AUDIO
    TITLE "1Q_j_2101-2113_74"
    INDEX 01 02:02:72
  TRACK 75 AUDIO
    TITLE "1Q_j_2101-2113_75"
    INDEX 01 02:03:05
  TRACK 76 AUDIO
    TITLE "1Q_j_2101-2113_76"
    INDEX 01 02:08:55
  TRACK 77 AUDIO
    TITLE "1Q_j_2101-2113_77"
    INDEX 01 02:09:25
  TRACK 78 AUDIO
    TITLE "1Q_j_2101-2113_78"
    INDEX 01 02:10:43
  TRACK 79 AUDIO
    TITLE "1Q_j_2101-2113_79"
    INDEX 01 02:10:48
  TRACK 80 AUDIO
    TITLE "1Q_j_2101-2113_80"
    INDEX 01 02:13:00
  TRACK 81 AUDIO
    TITLE "1Q_j_2101-2113_81"
    INDEX 01 02:13:10
  TRACK 82 AUDIO
    TITLE "1Q_j_2101-2113_82"
    INDEX 01 02:17:45
